<?xml version="1.0" standalone="no"?><!DOCTYPE svg PUBLIC "-//W3C//DTD SVG 1.1//EN" "http://www.w3.org/Graphics/SVG/1.1/DTD/svg11.dtd"><svg t="1557041546450" class="icon" style="" viewBox="0 0 1024 1024" version="1.1" xmlns="http://www.w3.org/2000/svg" p-id="4225" xmlns:xlink="http://www.w3.org/1999/xlink" width="64" height="64"><defs><style type="text/css"></style></defs><path d="M808.96 476.1600000000001c-11.519999999999996-33.28-17.92-51.2-24.32-67.84-11.519999999999996-30.719999999999995-19.2-52.47999999999999-44.8-144.64-15.359999999999998-56.31999999999999-43.52-96-84.48-117.75999999999999 1.28-3.8399999999999994 1.28-6.4 1.28-10.24 0-3.8399999999999994-1.28-7.679999999999999-1.28-11.519999999999996 12.8-10.24 23.039999999999992-20.48 23.039999999999992-37.12 0-5.12-1.28-29.439999999999998-33.28-34.56C638.7199999999999 51.19999999999999 631.04 51.19999999999999 623.36 51.19999999999999c-7.679999999999999 0-16.64 0-24.32 1.28C588.8 53.76000000000005 576 57.60000000000002 568.32 67.84000000000003c-3.8399999999999994 5.12-11.519999999999996 14.079999999999998-17.92 23.039999999999992-11.519999999999996 16.64-15.359999999999998 26.88-15.359999999999998 35.84 0 0-1.28 1.28-1.28 1.28l-10.24 0-21.76 0-1.28 0-1.28 0 0 0-6.4 0-3.8399999999999994 0c-1.28 0-3.8399999999999994-1.28-6.4-1.28 0 0 0-1.28 0-1.28 12.8-10.24 23.039999999999992-21.76 23.039999999999992-37.12 0-5.12-1.28-29.439999999999998-33.28-34.56C468.48 52.480000000000075 460.8 51.19999999999999 451.84000000000003 51.19999999999999c-7.679999999999999 0-16.64 0-24.32 1.28-10.24 1.28-23.039999999999992 3.8399999999999994-30.719999999999995 14.079999999999998-3.8399999999999994 5.12-11.519999999999996 14.079999999999998-17.92 23.039999999999992-11.519999999999996 17.92-15.359999999999998 26.88-15.359999999999998 35.84 0 5.12 1.28 12.8 5.12 17.92-12.8 7.679999999999999-25.6 16.64-35.84 26.88-21.76 23.039999999999992-38.4 53.76-49.92 90.87999999999998-25.6 92.15999999999997-34.56 113.92-44.8 144.64-6.4 16.64-12.8 34.56-24.32 67.84-17.92 52.47999999999999-23.039999999999992 131.84 11.519999999999996 197.12 16.64 30.719999999999995 40.96 55.04 72.95999999999998 72.95999999999998-10.24 14.079999999999998-17.92 29.439999999999998-23.039999999999992 46.079999999999984-3.8399999999999994 12.8-3.8399999999999994 28.159999999999997 2.56 39.68 6.4 12.8 16.64 21.76 30.719999999999995 26.88 5.12 1.28 11.519999999999996 2.56 16.64 2.56 6.4 0 14.079999999999998-1.28 20.48-3.8399999999999994 0 0 0 0 0 1.28 11.519999999999996 35.84 11.519999999999996 42.24 10.24 48.64 0 2.56 0 6.4 0 10.24 0 34.56 32 56.31999999999999 62.72 56.31999999999999 12.8 0 26.88-2.56 37.12-8.96 8.96-5.12 16.64-11.519999999999996 21.76-20.48 7.679999999999999 1.28 16.64 2.56 29.439999999999998 2.56 1.28 0 2.56 0 5.12 0 1.28 0 3.8399999999999994 0 5.12 0 12.8 0 21.76-1.28 29.439999999999998-2.56 5.12 7.679999999999999 11.519999999999996 15.359999999999998 21.76 20.48 10.24 5.12 24.32 8.96 37.12 8.96 14.079999999999998 0 28.159999999999997-5.12 39.68-12.8 14.079999999999998-10.24 23.039999999999992-26.88 23.039999999999992-43.52 0-3.8399999999999994 0-7.679999999999999 0-10.24 0-6.4-1.28-12.8 10.24-48.64 0 0 0 0 0-1.28 6.4 2.56 12.8 3.8399999999999994 20.48 3.8399999999999994 5.12 0 11.519999999999996-1.28 16.64-2.56 12.8-3.8399999999999994 24.32-14.079999999999998 30.719999999999995-26.88 6.4-12.8 7.679999999999999-26.88 2.56-39.68-5.12-16.64-14.079999999999998-32-23.039999999999992-46.079999999999984 30.719999999999995-16.64 55.04-40.96 72.95999999999998-72.95999999999998C832 608 826.8800000000001 528.64 808.96 476.1600000000001zM684.8 282.88000000000005c7.679999999999999 37.12-10.24 67.84-39.68 67.84-29.439999999999998 0-58.879999999999995-30.719999999999995-65.28-67.84-7.679999999999999-37.12 10.24-67.84 39.68-67.84C647.6800000000001 215.03999999999996 677.1199999999999 244.48000000000008 684.8 282.88000000000005zM668.16 734.7199999999999c19.2 12.8 38.4 34.56 49.92 67.84 3.8399999999999994 11.519999999999996-2.56 23.039999999999992-12.8 26.88-2.56 1.28-3.8399999999999994 1.28-6.4 1.28-8.96 0-19.2-5.12-21.76-14.079999999999998-7.679999999999999-23.039999999999992-10.24-37.12-35.84-46.079999999999984l0 8.96c12.8 11.519999999999996 17.92 35.84 6.4 70.4-16.64 51.2-10.24 52.47999999999999-10.24 67.84 0 15.359999999999998-16.64 25.6-30.719999999999995 25.6-15.359999999999998 0-33.28-6.4-33.28-21.76 0-8.96-3.8399999999999994-11.519999999999996-8.96-11.519999999999996-3.8399999999999994 0-8.96 1.28-14.079999999999998 2.56-6.4 1.28-15.359999999999998 3.8399999999999994-30.719999999999995 3.8399999999999994-1.28 0-2.56 0-5.12 0-1.28 0-3.8399999999999994 0-5.12 0-15.359999999999998 0-24.32-2.56-30.719999999999995-3.8399999999999994-5.12-1.28-10.24-2.56-14.079999999999998-2.56-5.12 0-8.96 2.56-8.96 11.519999999999996 0 15.359999999999998-19.2 21.76-34.56 21.76-15.359999999999998 0-30.719999999999995-10.24-30.719999999999995-25.6 0-15.359999999999998 5.12-16.64-11.519999999999996-67.84-11.519999999999996-34.56-2.56-58.879999999999995 5.12-70.4l-2.56 2.56 2.56-11.519999999999996c-12.8 8.96-26.88 23.039999999999992-34.56 46.079999999999984-2.56 8.96-11.519999999999996 14.079999999999998-20.48 14.079999999999998-2.56 0-3.8399999999999994 0-6.4-1.28-11.519999999999996-3.8399999999999994-16.64-15.359999999999998-12.8-26.88 11.519999999999996-33.28 30.719999999999995-53.76 49.92-67.84-126.72-32-139.52-163.84-111.35999999999999-248.31999999999994 30.719999999999995-93.44 29.439999999999998-70.4 70.4-213.75999999999996 20.48-72.95999999999998 58.879999999999995-98.56 94.72-108.8 7.679999999999999-10.24 17.92-25.6 17.92-28.159999999999997 0-5.12-30.719999999999995-2.56-30.719999999999995-7.679999999999999 0-5.12 19.2-30.719999999999995 25.6-39.68 2.56-2.56 16.64-5.12 30.719999999999995-5.12 11.519999999999996 0 23.039999999999992 1.28 23.039999999999992 5.12 0 6.4-33.28 28.159999999999997-33.28 34.56 0 6.4 12.8 8.96 12.8 14.079999999999998 0 2.56-7.679999999999999 12.8-15.359999999999998 20.48l1.28 0c6.4-1.28 12.8-2.56 19.2-2.56 12.8 0 23.039999999999992 0 30.719999999999995 0 1.28 0 2.56 0 3.8399999999999994 0 2.56 0 5.12 0 6.4 0 0 0 0 0 0 0 1.28 0 1.28 0 1.28 0 0 0 1.28 0 1.28 0 2.56 0 8.96 0 21.76 0 3.8399999999999994 0 6.4 0 10.24 0 7.679999999999999 0 17.92 0 30.719999999999995 0 6.4 0 12.8 1.28 19.2 1.28 6.4-7.679999999999999 14.079999999999998-17.92 14.079999999999998-20.48 0-5.12-30.719999999999995-2.56-30.719999999999995-7.679999999999999 0-5.12 19.2-30.719999999999995 25.6-39.68 2.56-2.56 16.64-5.12 30.719999999999995-5.12 11.519999999999996 0 23.039999999999992 1.28 23.039999999999992 5.12 0 6.4-33.28 28.159999999999997-33.28 34.56 0 6.4 12.8 8.96 12.8 14.079999999999998 0 3.8399999999999994-12.8 16.64-20.48 24.32 0 0 0 0 0 0-6.4 0-11.519999999999996 0-17.92 2.56-61.43999999999999 14.079999999999998-96 92.15999999999997-78.08 174.08 19.2 81.92 83.2 136.96 145.91999999999996 122.87999999999998 42.24-10.24 72.95999999999998-49.92 80.63999999999999-101.12 16.64 53.76 21.76 60.16 44.8 129.28C807.6800000000001 570.88 794.8800000000001 701.44 668.16 734.7199999999999z" fill="#2c2c2c" p-id="4226"></path><path d="M446.72 294.4c0-1.28 1.28-2.56 1.28-2.56 0-1.28 0-1.28 0-2.56 0-2.56 1.28-3.8399999999999994 1.28-3.8399999999999994l0 0c0 0 0-1.28 0-5.12 0-1.28 0-3.8399999999999994 0-6.4 0-2.56 0-5.12 0-7.679999999999999 0-1.28 0-2.56 0-5.12 0-1.28 0-3.8399999999999994-1.28-5.12 0-1.28-1.28-3.8399999999999994-1.28-5.12 0-1.28 0-2.56-1.28-2.56 0-1.28 0-2.56-1.28-2.56-2.56-7.679999999999999-6.4-16.64-14.079999999999998-24.32-3.8399999999999994-3.8399999999999994-8.96-7.679999999999999-14.079999999999998-8.96-1.28-1.28-2.56-1.28-3.8399999999999994-1.28-1.28 0-2.56-1.28-3.8399999999999994-1.28-1.28 0-3.8399999999999994 0-5.12-1.28-1.28 0-2.56-1.28-3.8399999999999994-1.28L399.35999999999996 204.8l0 0c-1.28 0 0 0 0 0l0 0 0 1.28-2.56 1.28c-1.28 0-2.56 0-5.12 1.28-1.28 0-2.56 1.28-3.8399999999999994 1.28-1.28 0-2.56 1.28-3.8399999999999994 1.28-5.12 2.56-11.519999999999996 5.12-16.64 8.96-10.24 6.4-19.2 16.64-25.6 26.88-3.8399999999999994 5.12-6.4 11.519999999999996-8.96 16.64 0 1.28-1.28 2.56-1.28 5.12l-1.28 5.12c0 1.28-1.28 2.56-1.28 5.12l-1.28 5.12c-1.28 6.4-2.56 12.8-2.56 19.2 0 3.8399999999999994 0 6.4 0 10.24 0 3.8399999999999994 1.28 6.4 1.28 10.24 1.28 6.4 3.8399999999999994 12.8 7.679999999999999 19.2 3.8399999999999994 6.4 8.96 11.519999999999996 15.359999999999998 15.359999999999998 1.28 1.28 2.56 1.28 5.12 2.56 1.28 1.28 3.8399999999999994 1.28 5.12 2.56l1.28 0 1.28 0 2.56 1.28 2.56 0 2.56 0 2.56 0 1.28 0 0-1.28c0 0 1.28-1.28 1.28-1.28l0 0 0 1.28c1.28 0 3.8399999999999994 1.28 5.12 1.28 1.28 0 3.8399999999999994 0 5.12 0l2.56 0c1.28 0 1.28 0 2.56 0 12.8-3.8399999999999994 21.76-10.24 29.439999999999998-16.64 7.679999999999999-6.4 12.8-14.079999999999998 17.92-21.76 2.56-3.8399999999999994 3.8399999999999994-6.4 5.12-10.24 1.28-1.28 1.28-2.56 2.56-5.12 0-1.28 1.28-2.56 1.28-3.8399999999999994C445.44000000000005 299.52 445.44000000000005 296.96 446.72 294.4zM430.08 266.24c0 2.56 0 3.8399999999999994 0 6.4 0 1.28 0 3.8399999999999994-1.28 5.12 0 1.28 0 2.56-1.28 3.8399999999999994 0 0 0 1.28-1.28 3.8399999999999994 0 1.28 0 1.28 0 2.56 0 1.28 0 1.28-1.28 2.56-1.28 1.28-1.28 3.8399999999999994-2.56 5.12-1.28 3.8399999999999994-5.12 8.96-7.679999999999999 15.359999999999998-3.8399999999999994 5.12-7.679999999999999 11.519999999999996-14.079999999999998 16.64-1.28 1.28-2.56 2.56-3.8399999999999994 3.8399999999999994-1.28 1.28-2.56 2.56-5.12 3.8399999999999994-1.28 0-1.28 1.28-2.56 1.28l-1.28 1.28-1.28 0c-1.28 0-1.28 1.28-2.56 1.28-1.28 0-1.28 1.28-2.56 1.28 0 0-1.28 0-1.28 0l-1.28 0c-1.28 0-2.56 0-2.56 1.28-1.28 0-2.56 0-2.56 0l0 0 0 2.56c-1.28 0 1.28 2.56 1.28 2.56l0 0L371.2 343.04l-2.56-1.28-2.56-1.28-1.28 0c0 0-1.28 0-1.28 0l0 0-1.28 0c-1.28 0-1.28 0-2.56-1.28-1.28 0-1.28-1.28-2.56-1.28-7.679999999999999-3.8399999999999994-12.8-11.519999999999996-16.64-21.76-1.28-2.56-1.28-5.12-2.56-7.679999999999999 0-2.56-1.28-5.12-1.28-7.679999999999999 0-5.12 0-11.519999999999996 1.28-16.64 0-2.56 1.28-6.4 1.28-8.96l1.28-3.8399999999999994c0-1.28 1.28-2.56 1.28-3.8399999999999994 1.28-5.12 3.8399999999999994-10.24 7.679999999999999-15.359999999999998 1.28-2.56 2.56-5.12 5.12-6.4 1.28-1.28 1.28-2.56 2.56-3.8399999999999994l2.56-2.56c1.28-1.28 1.28-2.56 2.56-2.56 1.28-1.28 1.28-2.56 2.56-2.56 2.56-1.28 3.8399999999999994-3.8399999999999994 6.4-5.12 2.56-1.28 3.8399999999999994-2.56 6.4-3.8399999999999994 1.28 0 2.56-1.28 3.8399999999999994-1.28l1.28-1.28c0 0 1.28 0 1.28 0 1.28 0 2.56-1.28 3.8399999999999994-1.28 1.28 0 2.56 0 3.8399999999999994 0 1.28 0 2.56 0 3.8399999999999994 0l1.28-1.28 0-1.28 0 0 1.28 1.28c1.28 0 2.56 1.28 3.8399999999999994 1.28 1.28 0 1.28 1.28 2.56 1.28 0 0 1.28 0 1.28 0l1.28 1.28c1.28 0 1.28 1.28 2.56 1.28 3.8399999999999994 1.28 6.4 5.12 8.96 7.679999999999999 5.12 6.4 6.4 12.8 7.679999999999999 19.2C430.08 256 430.08 261.12 430.08 266.24z" fill="#2c2c2c" p-id="4227"></path><path d="M359.68000000000006 285.44000000000005a1.5 1.4 90 1 0 35.84 0 1.5 1.4 90 1 0-35.84 0Z" fill="#2c2c2c" p-id="4228"></path><path d="M628.48 285.44000000000005a1.5 1.4 90 1 0 35.84 0 1.5 1.4 90 1 0-35.84 0Z" fill="#2c2c2c" p-id="4229"></path><path d="M545.28 601.6c-19.2 0-49.92 0-70.4 0-26.88 0-39.68 21.76-21.76 46.079999999999984 17.92 23.039999999999992 43.52 32 55.04 32 12.8 0 39.68-5.12 55.04-34.56C579.84 615.6800000000001 564.48 601.6 545.28 601.6z" fill="#2c2c2c" p-id="4230"></path></svg>