<?xml version="1.0" standalone="no"?><!DOCTYPE svg PUBLIC "-//W3C//DTD SVG 1.1//EN" "http://www.w3.org/Graphics/SVG/1.1/DTD/svg11.dtd"><svg t="1557041481521" class="icon" style="" viewBox="0 0 1024 1024" version="1.1" xmlns="http://www.w3.org/2000/svg" p-id="3286" xmlns:xlink="http://www.w3.org/1999/xlink" width="64" height="64"><defs><style type="text/css"></style></defs><path d="M923.224782 257.346796 674.6841 0.100843 674.6841 0c0 0-466.405758 0-516.823438 0C102.440945 2.485832 101.607474 55.944586 101.607474 55.944586S100.357268 914.182355 100.774003 966.811283c4.582873 53.458754 54.586248 57.187502 54.586248 57.187502s670.443242-0.828611 714.613537 0c48.335218-5.388399 53.334827-55.529066 53.334827-55.529066l0-711.122923L923.224782 257.346796zM674.6841 17.771391l230.195824 239.575405L674.6841 257.346796 674.6841 17.771391zM911.722645 962.640285c0 0-3.640055 44.163006-50.581701 49.432338-42.89579-0.810386-695.209224 0-695.209224 0s-48.559988 2.427513-53.010429-49.836923c-0.404586-51.455266 0.810386-896.60536 0.810386-896.60536S109.680961 13.364688 163.500561 10.934745c48.963359 0 499.480932 0 499.480932 0l0 257.676053 248.739937 0L911.72143 962.640285zM471.337935 176.170893l-202.90027 0 0 208.975129 202.90027 0L471.337935 176.170893zM786.988792 845.034672c-0.261219 0-0.515148 0.024299-0.771507 0.038879l0-0.059534L242.754379 845.014017l0 0.040094c-0.133647-0.00486-0.263649-0.020655-0.398511-0.020655-6.956928 0-12.595611 5.639899-12.595611 12.595611 0 6.955713 5.638684 12.594396 12.595611 12.594396 0.516363 0 1.021791-0.040094 1.52236-0.100843l541.58699 0c0.500568 0.060749 1.005997 0.100843 1.523574 0.100843 6.955713 0 12.593181-5.639899 12.593181-12.594396C799.581974 850.673355 793.94329 845.034672 786.988792 845.034672zM242.754379 510.126514c-0.133647-0.00486-0.263649-0.01944-0.398511-0.01944-6.956928 0-12.595611 5.638684-12.595611 12.595611 0 6.955713 5.638684 12.593181 12.595611 12.593181 0.516363 0 1.021791-0.040094 1.52236-0.099628l541.58699 0c0.500568 0.059534 1.005997 0.099628 1.523574 0.099628 6.955713 0 12.593181-5.638684 12.593181-12.593181 0-6.958143-5.638684-12.595611-12.593181-12.595611-0.261219 0-0.515148 0.024299-0.771507 0.037664l0-0.059534L242.754379 510.085205 242.754379 510.126514zM786.988792 677.57148c-0.261219 0-0.515148 0.024299-0.771507 0.038879l0-0.059534L242.754379 677.550826l0 0.040094c-0.133647-0.00486-0.263649-0.020655-0.398511-0.020655-6.956928 0-12.595611 5.639899-12.595611 12.595611 0 6.955713 5.638684 12.594396 12.595611 12.594396 0.516363 0 1.021791-0.040094 1.52236-0.100843l541.58699 0c0.500568 0.060749 1.005997 0.100843 1.523574 0.100843 6.955713 0 12.593181-5.639899 12.593181-12.594396C799.581974 683.210164 793.94329 677.57148 786.988792 677.57148z" p-id="3287"></path></svg>